<svg xmlns="http://www.w3.org/2000/svg" xmlns:xlink="http://www.w3.org/1999/xlink" width="274" height="127" viewBox="0 0 274 127">
    <defs>
        <path id="prefix__a" d="M197.768 0c35.51 0 64.295 28.794 64.295 64.314 0 1.294-.038 2.579-.113 3.854 12.468 12.387 20.189 29.552 20.189 48.52 0 37.768-30.608 68.385-68.365 68.385-24.548 0-46.075-12.943-58.131-32.379-3.15 1.617-6.72 2.528-10.504 2.528-8.326 0-15.62-4.413-19.674-11.028-8.607-.618-16.458-3.97-22.69-9.19-5.792 2.868-12.317 4.479-19.219 4.479-19.542 0-36.068-12.919-41.509-30.685-.575.035-1.156.053-1.742.053-14.322 0-26.152-10.675-27.971-24.505C7.227 83.105 3.436 78.5 3.436 73.01c0-2.585.84-4.973 2.262-6.907C2.58 64.008.53 60.45.53 56.41c0-6.444 5.223-11.668 11.666-11.668 6.442 0 11.665 5.224 11.665 11.668 0 .454-.026.9-.076 1.34 4.642-3.362 10.35-5.343 16.52-5.343 7.406 0 14.146 2.854 19.18 7.523 6.887-4.602 15.166-7.285 24.071-7.285 12.626 0 23.993 5.393 31.925 14 4.04-1.38 8.375-2.129 12.884-2.129 1.732 0 3.438.11 5.112.325l-.004-.527C133.473 28.794 162.26 0 197.768 0z"/>
        <path id="prefix__d" d="M2.814 15.66v-3.829l3.458 3.83h1.744L4.25 11.478l3.526-4.023H6.09L2.814 11.26V7.455H1.441v8.206h1.373zM10.3 8.572V7.312H8.927v1.26H10.3zm0 7.09V9.506H8.927v6.155H10.3zm4.176.17c.6 0 1.103-.142 1.51-.427.081-.057.158-.118.232-.183l.013-.013v.453h1.213V7.455H16.06v2.35L16 9.76c-.36-.258-.8-.398-1.315-.421l-.158-.004c-.58 0-1.086.142-1.515.425-.43.283-.76.668-.994 1.157-.234.488-.35 1.043-.35 1.666 0 .616.115 1.169.347 1.659.232.49.558.877.98 1.162.421.285.915.428 1.481.428zm.21-1.23c-.356 0-.65-.09-.882-.268-.232-.179-.404-.42-.516-.727-.112-.306-.168-.646-.168-1.023 0-.372.057-.711.171-1.017.114-.306.29-.549.53-.73.24-.18.543-.27.911-.27.35 0 .635.085.855.254.22.169.383.404.487.706.105.302.157.655.157 1.057 0 .4-.052.75-.157 1.055-.104.304-.27.54-.495.71-.226.168-.524.253-.892.253zm6.73 1.23c.793 0 1.415-.176 1.865-.53.45-.353.675-.839.675-1.458 0-.32-.066-.591-.197-.815-.13-.224-.343-.417-.638-.579-.294-.161-.686-.304-1.176-.43-.479-.121-.838-.224-1.08-.308-.24-.083-.401-.167-.481-.25-.08-.084-.12-.185-.12-.302 0-.21.1-.372.297-.488.197-.115.457-.164.78-.145.338.02.609.105.812.257.203.152.322.359.356.62l1.401-.25c-.053-.369-.193-.69-.421-.963-.228-.274-.527-.484-.897-.633-.37-.148-.795-.222-1.274-.222-.49 0-.915.077-1.276.23-.36.155-.642.374-.843.66-.201.284-.302.618-.302 1.002 0 .308.066.57.2.787.132.216.35.403.655.56.303.159.714.306 1.23.442.463.122.807.223 1.031.303.224.08.37.162.436.247.067.086.1.199.1.34 0 .227-.09.407-.27.538-.181.131-.437.197-.767.197-.376 0-.687-.088-.934-.263-.247-.174-.407-.414-.479-.718l-1.401.217c.102.62.39 1.1.866 1.442.474.342 1.092.513 1.851.513zm49.187 2.565l3.43-8.89H72.66l-1.672 4.404-1.718-4.404h-1.43l2.488 6.112-1.012 2.778h1.287zm9.862-5.43c.053-.738-.029-1.378-.245-1.921-.217-.544-.548-.964-.994-1.263-.447-.298-.989-.447-1.627-.447-.604 0-1.135.137-1.595.41-.46.274-.818.659-1.077 1.154-.258.496-.387 1.08-.387 1.753 0 .623.132 1.174.396 1.652.264.48.631.853 1.102 1.123.471.27 1.018.405 1.641.405.592 0 1.135-.154 1.626-.462.492-.308.856-.739 1.091-1.294l-1.355-.41c-.133.285-.322.503-.567.653-.245.15-.537.225-.875.225-.524 0-.923-.171-1.196-.513-.205-.257-.333-.592-.385-1.007l-.006-.059H80.465zm-1.395-1.038h-3.025l.008-.045c.057-.293.153-.54.29-.74l.06-.084c.273-.348.691-.521 1.253-.521.498 0 .862.153 1.094.461.16.213.266.513.317.899l.003.03zm4.391 3.904c.555 0 1.017-.104 1.388-.31.247-.139.473-.33.678-.573l.094-.117v.829h1.202v-3.779c0-.265-.012-.511-.034-.738-.023-.226-.09-.447-.2-.663-.201-.407-.51-.7-.926-.878-.416-.179-.897-.268-1.444-.268-.725 0-1.302.158-1.729.473-.427.315-.717.733-.869 1.254l1.254.393c.102-.315.283-.538.54-.667.26-.129.527-.193.804-.193.46 0 .786.1.98.302.155.16.247.393.275.698l.002.037-.127.019-.302.044-.295.042c-.39.055-.75.115-1.083.18-.332.064-.622.136-.868.216-.327.11-.593.252-.798.425-.205.173-.357.378-.456.615-.098.238-.148.505-.148.8 0 .339.079.649.237.93.157.28.39.506.697.675.308.17.684.254 1.128.254zm.274-1.094c-.217 0-.398-.035-.544-.103-.146-.068-.257-.16-.333-.276-.076-.116-.114-.25-.114-.402 0-.133.03-.25.088-.348.059-.099.143-.186.253-.262.11-.076.245-.142.405-.2.163-.053.351-.101.564-.145.213-.043.467-.09.763-.14l.489-.08.152-.023-.002.106-.004.12-.005.131c-.01.226-.05.427-.123.601-.045.141-.133.291-.265.45-.13.16-.306.295-.526.405-.22.11-.487.166-.798.166zm5.948.923v-3.129c0-.235.028-.455.085-.658.057-.203.145-.385.265-.544.12-.16.274-.291.464-.394.19-.114.404-.18.641-.199.238-.019.447-.002.63.051V9.506c-.183-.03-.37-.039-.564-.026-.194.014-.383.05-.567.109-.184.059-.352.14-.504.242-.179.11-.332.25-.459.419-.05.067-.098.138-.14.211l-.017.03v-.985h-1.213v6.155h1.379zm5.543.17c.794 0 1.416-.176 1.866-.53.45-.353.675-.839.675-1.458 0-.32-.066-.591-.197-.815-.13-.224-.344-.417-.638-.579-.294-.161-.686-.304-1.176-.43-.479-.121-.839-.224-1.08-.308-.241-.083-.402-.167-.481-.25-.08-.084-.12-.185-.12-.302 0-.21.099-.372.296-.488.198-.115.458-.164.78-.145.339.02.61.105.813.257.203.152.321.359.356.62l1.401-.25c-.053-.369-.194-.69-.421-.963-.228-.274-.527-.484-.898-.633-.37-.148-.794-.222-1.273-.222-.49 0-.915.077-1.276.23-.361.155-.642.374-.843.66-.202.284-.302.618-.302 1.002 0 .308.066.57.2.787.132.216.35.403.654.56.304.159.714.306 1.23.442.464.122.808.223 1.032.303.224.08.37.162.436.247.066.086.1.199.1.34 0 .227-.09.407-.271.538-.18.131-.436.197-.766.197-.376 0-.688-.088-.935-.263-.247-.174-.406-.414-.478-.718l-1.402.217c.103.62.392 1.1.866 1.442.475.342 1.092.513 1.852.513zm7.793 0c.555 0 1.017-.103 1.388-.31.246-.138.473-.329.678-.572l.093-.117v.829h1.203v-3.779c0-.265-.012-.511-.035-.738-.022-.226-.089-.447-.199-.663-.201-.407-.51-.7-.926-.878-.416-.179-.897-.268-1.444-.268-.725 0-1.302.158-1.729.473-.427.315-.717.733-.869 1.254l1.254.393c.102-.315.283-.538.54-.667.26-.129.527-.193.804-.193.46 0 .786.1.98.302.155.16.247.393.275.698l.002.037-.127.019-.302.044-.295.042c-.39.055-.75.115-1.083.18-.332.064-.622.136-.868.216-.327.11-.593.252-.798.425-.205.173-.357.378-.456.615-.099.238-.148.505-.148.8 0 .339.079.649.236.93.158.28.39.506.698.675.308.17.684.254 1.128.254zm.274-1.093c-.217 0-.398-.035-.544-.103-.146-.068-.258-.16-.334-.276-.075-.116-.113-.25-.113-.402 0-.133.029-.25.088-.348.059-.099.143-.186.253-.262.11-.076.245-.142.405-.2.163-.053.351-.101.564-.145.213-.043.467-.09.763-.14l.489-.08.153-.023-.003.106-.004.12-.005.131c-.01.226-.05.427-.123.601-.045.141-.134.291-.265.45-.13.16-.306.295-.527.405-.22.11-.486.166-.797.166zm7.155 3.829c.464 0 .886-.063 1.268-.188s.702-.316.96-.573c.258-.256.433-.584.524-.983.03-.137.052-.276.065-.419.014-.142.02-.291.02-.447v-6.45h-1.202v.44l-.004-.005c-.036-.033-.072-.064-.11-.094l-.116-.088c-.397-.283-.888-.425-1.473-.425-.581 0-1.086.142-1.515.425-.43.283-.761.668-.995 1.157-.233.488-.35 1.043-.35 1.666 0 .616.116 1.169.348 1.659.231.49.558.877.98 1.162.421.285.915.428 1.48.428.6 0 1.104-.143 1.51-.428l.074-.054v.584c.007.251-.035.466-.124.646l-.05.087c-.123.195-.297.343-.52.444-.225.1-.48.151-.764.151-.243 0-.472-.054-.687-.162-.214-.109-.38-.275-.498-.499l-1.265.627c.16.281.365.521.616.72.25.2.532.353.846.46.313.106.64.159.982.159zm.091-3.966c-.357 0-.65-.09-.883-.268-.231-.179-.403-.42-.515-.727-.112-.306-.168-.646-.168-1.023 0-.372.057-.711.17-1.017.115-.306.291-.549.53-.73.24-.18.544-.27.912-.27.35 0 .634.085.855.254.22.169.382.404.487.706.104.302.156.655.156 1.057 0 .4-.052.75-.156 1.055-.105.304-.27.54-.496.71-.226.168-.523.253-.892.253zm7.06 1.23c.614 0 1.152-.137 1.611-.412.46-.276.818-.658 1.074-1.146.257-.488.385-1.051.385-1.69 0-.634-.127-1.195-.382-1.684-.254-.488-.611-.87-1.071-1.148-.46-.277-.999-.416-1.618-.416-.604 0-1.136.137-1.595.41-.46.274-.819.654-1.077 1.14-.258.486-.387 1.053-.387 1.698 0 .635.126 1.196.379 1.684.252.489.608.871 1.068 1.149.46.277.997.416 1.612.416zm0-1.287c-.529 0-.929-.178-1.2-.533-.272-.355-.407-.831-.407-1.428 0-.387.056-.728.17-1.023.114-.294.29-.524.527-.69.238-.164.54-.247.91-.247.538 0 .943.178 1.213.533.27.355.404.83.404 1.427 0 .578-.133 1.049-.399 1.414-.266.364-.672.547-1.219.547z"/>
        <path id="prefix__g" d="M36.442 17.907c.886 0 1.706-.21 2.461-.63.756-.42 1.364-.987 1.827-1.7.462-.713.693-1.512.693-2.398 0-.886-.19-1.672-.571-2.36-.381-.686-.909-1.227-1.582-1.621-.674-.394-1.454-.591-2.34-.591-.39 0-.81.065-1.26.195-.224.065-.436.15-.637.254l-.061.035.186-3.063h5.328V3.547h-7.677l-.43 7.483 2.247.684c.156-.15.39-.308.703-.474.312-.166.716-.25 1.21-.25.405 0 .774.098 1.11.294.335.195.602.459.8.791.199.332.298.7.298 1.104 0 .404-.1.772-.298 1.104-.198.332-.465.596-.8.791-.336.196-.705.293-1.11.293-.305 0-.603-.066-.893-.2-.29-.134-.543-.32-.761-.562-.219-.24-.37-.527-.455-.86l-2.558.684c.195.69.517 1.296.966 1.818.45.52.985.928 1.607 1.22.622.294 1.288.44 1.997.44zm12.99-6.31V9.544h-5.86v2.051h5.86zm6.113 6.017l4.708-11.567v-2.5h-8.868v2.5H57.4l-4.727 11.567h2.871z"/>
        <radialGradient id="prefix__e" cx="44.448%" cy="50%" r="548.621%" fx="44.448%" fy="50%" gradientTransform="matrix(.0944 0 0 1 .403 0)">
            <stop offset="0%" stop-color="#FFBF5D"/>
            <stop offset="100%" stop-color="#FF9A00"/>
        </radialGradient>
        <radialGradient id="prefix__h" cx="44.448%" cy="50%" r="102.351%" fx="44.448%" fy="50%" gradientTransform="matrix(.506 0 0 1 .22 0)">
            <stop offset="0%" stop-color="#FFBF5D"/>
            <stop offset="100%" stop-color="#FF9A00"/>
        </radialGradient>
        <filter id="prefix__c" width="130.2%" height="419.9%" x="-15.1%" y="-159.9%" filterUnits="objectBoundingBox">
            <feOffset in="SourceAlpha" result="shadowOffsetOuter1"/>
            <feGaussianBlur in="shadowOffsetOuter1" result="shadowBlurOuter1" stdDeviation="6"/>
            <feColorMatrix in="shadowBlurOuter1" values="0 0 0 0 1 0 0 0 0 0.97254902 0 0 0 0 0.866666667 0 0 0 0.551027098 0"/>
        </filter>
        <filter id="prefix__f" width="226.8%" height="350.7%" x="-63.4%" y="-125.3%" filterUnits="objectBoundingBox">
            <feOffset in="SourceAlpha" result="shadowOffsetOuter1"/>
            <feGaussianBlur in="shadowOffsetOuter1" result="shadowBlurOuter1" stdDeviation="6"/>
            <feColorMatrix in="shadowBlurOuter1" values="0 0 0 0 1 0 0 0 0 0.97254902 0 0 0 0 0.866666667 0 0 0 0.551027098 0"/>
        </filter>
    </defs>
    <g fill="none" fill-rule="evenodd">
        <path d="M0 0.504H298.416V210H0z" transform="translate(0 -83)"/>
        <g transform="translate(0 -83) rotate(-5 291.421 5.887)">
            <mask id="prefix__b" fill="#fff">
                <use xlink:href="#prefix__a"/>
            </mask>
            <use fill="#F6F6F6" xlink:href="#prefix__a"/>
            <path fill="#D6D2DD" d="M156.919 156.64c-8.323-15.102 15.042 14.97 44.561 20.249 31.038 5.55 69.286-22.35 58.886-9.684-30.276 36.872-86.952 19.364-103.447-10.565zM3.898 68.936c1.59-1.339.038 2.356.943 6.951.376 1.91 1.76 3.7 2.941 4.999 1.888-5.713 3.822 6.142 13.258 16.39 5.04 5.475 13.906 7.813 19.043 9.087-.313-2.048-.475-4.13-.475-6.228 0-10.794 5.192 17.57 19.826 28.192 2.334 1.334 4.857 2.638 7.478 3.741 3.904 1.368 8.348 2.337 12.561 3.054.66.02 1.317.01 1.97-.03 18.094-1.094 40.038-19.638 22.447-2.834 1.325 1.804 3.467 4.983 6.87 6.862 3.926 2.169 9.69 3.25 12.777 3.89-1.57-3.175-2.337-6.7-2-10.311.71-7.615 2.17 7.598 9.766 14.382s18.447 8.141 14.65 8.141c-2.568 0-5.406.743-7.868 0-5.915-1.784-11.091-5.966-14.038-11.24l-.51.046c-16.739 1.45-21.483-5.152-21.932-9.608-9.161 8.316-21.813 9.137-33.196 4.908-14.032-3.384-24.872-15.987-27.931-30.756l-.316.045-.404.056C24.726 110.737 3.944 96.761 7.453 82.05 3.07 79.458.087 72.141 3.898 68.936zm-19.09 4.333c0-5.35 1.334 5.322 7.596 11.398 6.72 6.52 18.218 8.683 12.48 8.683-11.088 0-20.076-8.99-20.076-20.08zM1.774 51.543c1.722-1.165-.209 2.347.211 7.012.42 4.664 6.713 9.24 2.65 6.863C.112 62.774-2.58 54.486 1.773 51.543z" mask="url(#prefix__b)"/>
        </g>
        <g fill-rule="nonzero">
            <g transform="translate(0 -83) rotate(-5 1244.167 -832.589) rotate(5 61.055 12.94)">
                <use fill="#000" filter="url(#prefix__c)" xlink:href="#prefix__d"/>
                <use fill="#FFFFF1" xlink:href="#prefix__d"/>
                <use fill="url(#prefix__e)" xlink:href="#prefix__d"/>
            </g>
            <g transform="translate(0 -83) rotate(-5 1244.167 -832.589) rotate(5 46.062 10.727)">
                <use fill="#000" filter="url(#prefix__f)" xlink:href="#prefix__g"/>
                <use fill="#FFFFF1" xlink:href="#prefix__g"/>
                <use fill="url(#prefix__h)" xlink:href="#prefix__g"/>
            </g>
        </g>
    </g>
</svg>
